<?xml version="1.0" encoding="utf-8"?>
<!-- Generator: Adobe Illustrator 22.0.1, SVG Export Plug-In . SVG Version: 6.00 Build 0)  -->
<svg version="1.1" id="Слой_1" xmlns="http://www.w3.org/2000/svg" xmlns:xlink="http://www.w3.org/1999/xlink" x="0px" y="0px"
	 viewBox="0 0 512 512" style="enable-background:new 0 0 512 512;" xml:space="preserve">
<style type="text/css">
	.st0{fill:#FFFFFF;}
</style>
<g>
	<path class="st0" d="M256,256.8c-5.1,0-10.2-1.5-14.1-4.3l-192-128c-6.9-4.6-11.5-12.3-11.5-21.2V26.4C38.4,12.3,49.9,0.8,64,0.8
		c5.1,0,10.2,1.5,14.1,4.3L256,123.7L433.9,5.1c3.8-2.8,9-4.3,14.1-4.3c14.1,0,25.6,11.5,25.6,25.6v76.8c0,9-4.6,16.6-11.5,21.2
		l-192,128C266.2,255.3,261.1,256.8,256,256.8z"/>
	<path class="st0" d="M256,512.8c-5.1,0-10.2-1.5-14.1-4.4l-192-128c-6.9-4.6-11.5-12.3-11.5-21.2v-76.8c0-14.1,11.5-25.6,25.6-25.6
		c5.1,0,10.2,1.5,14.1,4.4L256,379.7l177.9-118.5c3.8-2.8,9-4.4,14.1-4.4c14.1,0,25.6,11.5,25.6,25.6v76.8c0,9-4.6,16.6-11.5,21.2
		l-192,128C266.2,511.3,261.1,512.8,256,512.8z"/>
</g>
</svg>
